<?xml version="1.0" encoding="utf-8"?>
<!-- Generator: Adobe Illustrator 21.0.0, SVG Export Plug-In . SVG Version: 6.00 Build 0)  -->
<svg version="1.1" id="Layer_1" xmlns="http://www.w3.org/2000/svg" xmlns:xlink="http://www.w3.org/1999/xlink" x="0px" y="0px"
	 viewBox="0 0 64 64" style="enable-background:new 0 0 64 64;" xml:space="preserve">
<style type="text/css">
	.st0{display:none;fill:#7CB342;}
	.st1{fill:#7CB342;}
	.st2{fill:none;stroke:#7CB342;stroke-width:2;stroke-miterlimit:10;}
</style>
<path class="st0" d="M32,28c-4.4,0-8,3.6-8,8s3.6,8,8,8s8-3.6,8-8S36.4,28,32,28z M60,12H50l-2-4.9C46.9,4.7,45.7,4,44,4H20
	c-1.7,0-2.9,0.7-4,3.1L14,12H4c-2.2,0-4,1.8-4,4v40c0,2.2,1.8,4,4,4h56c2.2,0,4-1.8,4-4V16C64,13.8,62.2,12,60,12z M32,52
	c-8.8,0-16-7.2-16-16s7.2-16,16-16s16,7.2,16,16S40.8,52,32,52z"/>
<g>
	<circle class="st1" cx="16" cy="46" r="8"/>
	<path class="st2" d="M16,10c0-4.4,3.6-8,8-8s8,3.6,8,8"/>
	<circle class="st1" cx="48" cy="18" r="8"/>
	<path class="st2" d="M48,54c0,4.4-3.6,8-8,8s-8-3.6-8-8"/>
	<line class="st2" x1="16" y1="46" x2="16" y2="10"/>
	<line class="st2" x1="32" y1="10" x2="32" y2="54.3"/>
	<line class="st2" x1="48" y1="18" x2="48" y2="54"/>
</g>
</svg>
